<mxfile host="app.diagrams.net" agent="Mozilla/5.0 (Windows NT 10.0; Win64; x64) AppleWebKit/537.36 (KHTML, like Gecko) Chrome/129.0.0.0 Safari/537.36" version="24.7.16">
  <diagram name="Page-1" id="hGbx7qolgZwLF0w567nS">
    <mxGraphModel dx="1235" dy="655" grid="1" gridSize="10" guides="1" tooltips="1" connect="1" arrows="1" fold="1" page="1" pageScale="1" pageWidth="850" pageHeight="1100" math="0" shadow="0">
      <root>
        <mxCell id="0" />
        <mxCell id="1" parent="0" />
        <mxCell id="Bn1nHYhkl1zuAkePhq-Y-4" value="" style="rounded=0;whiteSpace=wrap;html=1;" parent="1" vertex="1">
          <mxGeometry x="220" y="165" width="420" height="875" as="geometry" />
        </mxCell>
        <mxCell id="Bn1nHYhkl1zuAkePhq-Y-34" style="rounded=0;orthogonalLoop=1;jettySize=auto;html=1;entryX=0;entryY=0.5;entryDx=0;entryDy=0;" parent="1" source="Bn1nHYhkl1zuAkePhq-Y-5" target="Bn1nHYhkl1zuAkePhq-Y-14" edge="1">
          <mxGeometry relative="1" as="geometry" />
        </mxCell>
        <mxCell id="Bn1nHYhkl1zuAkePhq-Y-36" style="rounded=0;orthogonalLoop=1;jettySize=auto;html=1;entryX=0;entryY=0.5;entryDx=0;entryDy=0;" parent="1" source="Bn1nHYhkl1zuAkePhq-Y-5" target="Bn1nHYhkl1zuAkePhq-Y-23" edge="1">
          <mxGeometry relative="1" as="geometry" />
        </mxCell>
        <mxCell id="Bn1nHYhkl1zuAkePhq-Y-38" style="edgeStyle=none;rounded=0;orthogonalLoop=1;jettySize=auto;html=1;entryX=0;entryY=0.5;entryDx=0;entryDy=0;" parent="1" source="Bn1nHYhkl1zuAkePhq-Y-5" target="Bn1nHYhkl1zuAkePhq-Y-19" edge="1">
          <mxGeometry relative="1" as="geometry" />
        </mxCell>
        <mxCell id="Bn1nHYhkl1zuAkePhq-Y-39" style="edgeStyle=none;rounded=0;orthogonalLoop=1;jettySize=auto;html=1;entryX=0;entryY=0.5;entryDx=0;entryDy=0;" parent="1" source="Bn1nHYhkl1zuAkePhq-Y-5" target="Bn1nHYhkl1zuAkePhq-Y-29" edge="1">
          <mxGeometry relative="1" as="geometry" />
        </mxCell>
        <mxCell id="Bn1nHYhkl1zuAkePhq-Y-40" style="edgeStyle=none;rounded=0;orthogonalLoop=1;jettySize=auto;html=1;entryX=0;entryY=0.5;entryDx=0;entryDy=0;" parent="1" source="Bn1nHYhkl1zuAkePhq-Y-5" target="Bn1nHYhkl1zuAkePhq-Y-20" edge="1">
          <mxGeometry relative="1" as="geometry" />
        </mxCell>
        <mxCell id="Bn1nHYhkl1zuAkePhq-Y-41" style="edgeStyle=none;rounded=0;orthogonalLoop=1;jettySize=auto;html=1;entryX=0;entryY=0.5;entryDx=0;entryDy=0;" parent="1" source="Bn1nHYhkl1zuAkePhq-Y-5" target="Bn1nHYhkl1zuAkePhq-Y-16" edge="1">
          <mxGeometry relative="1" as="geometry" />
        </mxCell>
        <mxCell id="Bn1nHYhkl1zuAkePhq-Y-5" value="Buyer" style="shape=umlActor;verticalLabelPosition=bottom;verticalAlign=top;html=1;outlineConnect=0;" parent="1" vertex="1">
          <mxGeometry x="60" y="230" width="30" height="60" as="geometry" />
        </mxCell>
        <mxCell id="Bn1nHYhkl1zuAkePhq-Y-43" style="edgeStyle=none;rounded=0;orthogonalLoop=1;jettySize=auto;html=1;exitX=1;exitY=0.3333333333333333;exitDx=0;exitDy=0;exitPerimeter=0;" parent="1" source="Bn1nHYhkl1zuAkePhq-Y-9" edge="1">
          <mxGeometry relative="1" as="geometry">
            <mxPoint x="250" y="230" as="targetPoint" />
          </mxGeometry>
        </mxCell>
        <mxCell id="Bn1nHYhkl1zuAkePhq-Y-44" style="edgeStyle=none;rounded=0;orthogonalLoop=1;jettySize=auto;html=1;entryX=0;entryY=0.5;entryDx=0;entryDy=0;" parent="1" source="Bn1nHYhkl1zuAkePhq-Y-9" target="Bn1nHYhkl1zuAkePhq-Y-15" edge="1">
          <mxGeometry relative="1" as="geometry" />
        </mxCell>
        <mxCell id="Bn1nHYhkl1zuAkePhq-Y-9" value="Seller" style="shape=umlActor;verticalLabelPosition=bottom;verticalAlign=top;html=1;outlineConnect=0;" parent="1" vertex="1">
          <mxGeometry x="60" y="500" width="30" height="60" as="geometry" />
        </mxCell>
        <mxCell id="Bn1nHYhkl1zuAkePhq-Y-48" style="edgeStyle=none;rounded=0;orthogonalLoop=1;jettySize=auto;html=1;entryX=1;entryY=0.5;entryDx=0;entryDy=0;" parent="1" source="Bn1nHYhkl1zuAkePhq-Y-10" target="Bn1nHYhkl1zuAkePhq-Y-14" edge="1">
          <mxGeometry relative="1" as="geometry" />
        </mxCell>
        <mxCell id="e8Y8E4H3vGcmT9SzdaQ0-2" style="rounded=0;orthogonalLoop=1;jettySize=auto;html=1;entryX=1;entryY=0.5;entryDx=0;entryDy=0;" edge="1" parent="1" source="e8Y8E4H3vGcmT9SzdaQ0-6" target="Bn1nHYhkl1zuAkePhq-Y-29">
          <mxGeometry relative="1" as="geometry" />
        </mxCell>
        <mxCell id="e8Y8E4H3vGcmT9SzdaQ0-3" style="edgeStyle=none;rounded=0;orthogonalLoop=1;jettySize=auto;html=1;entryX=1;entryY=0.5;entryDx=0;entryDy=0;" edge="1" parent="1" source="Bn1nHYhkl1zuAkePhq-Y-10" target="Bn1nHYhkl1zuAkePhq-Y-30">
          <mxGeometry relative="1" as="geometry" />
        </mxCell>
        <mxCell id="e8Y8E4H3vGcmT9SzdaQ0-8" style="edgeStyle=none;rounded=0;orthogonalLoop=1;jettySize=auto;html=1;entryX=1;entryY=0.5;entryDx=0;entryDy=0;" edge="1" parent="1" source="Bn1nHYhkl1zuAkePhq-Y-10" target="e8Y8E4H3vGcmT9SzdaQ0-5">
          <mxGeometry relative="1" as="geometry" />
        </mxCell>
        <mxCell id="e8Y8E4H3vGcmT9SzdaQ0-10" style="edgeStyle=none;rounded=0;orthogonalLoop=1;jettySize=auto;html=1;entryX=1;entryY=0;entryDx=0;entryDy=0;" edge="1" parent="1" source="Bn1nHYhkl1zuAkePhq-Y-10" target="e8Y8E4H3vGcmT9SzdaQ0-7">
          <mxGeometry relative="1" as="geometry" />
        </mxCell>
        <mxCell id="e8Y8E4H3vGcmT9SzdaQ0-11" style="edgeStyle=none;rounded=0;orthogonalLoop=1;jettySize=auto;html=1;entryX=1;entryY=0.5;entryDx=0;entryDy=0;" edge="1" parent="1" source="Bn1nHYhkl1zuAkePhq-Y-10" target="e8Y8E4H3vGcmT9SzdaQ0-4">
          <mxGeometry relative="1" as="geometry" />
        </mxCell>
        <mxCell id="Bn1nHYhkl1zuAkePhq-Y-10" value="Admin" style="shape=umlActor;verticalLabelPosition=bottom;verticalAlign=top;html=1;outlineConnect=0;" parent="1" vertex="1">
          <mxGeometry x="740" y="260" width="30" height="60" as="geometry" />
        </mxCell>
        <mxCell id="Bn1nHYhkl1zuAkePhq-Y-14" value="login" style="ellipse;whiteSpace=wrap;html=1;" parent="1" vertex="1">
          <mxGeometry x="250" y="210" width="90" height="40" as="geometry" />
        </mxCell>
        <mxCell id="Bn1nHYhkl1zuAkePhq-Y-15" value="Create&amp;nbsp; new account" style="ellipse;whiteSpace=wrap;html=1;" parent="1" vertex="1">
          <mxGeometry x="250" y="265" width="90" height="50" as="geometry" />
        </mxCell>
        <mxCell id="Bn1nHYhkl1zuAkePhq-Y-16" value="comment products" style="ellipse;whiteSpace=wrap;html=1;" parent="1" vertex="1">
          <mxGeometry x="250" y="660" width="90" height="50" as="geometry" />
        </mxCell>
        <mxCell id="Bn1nHYhkl1zuAkePhq-Y-19" value="Rate products" style="ellipse;whiteSpace=wrap;html=1;" parent="1" vertex="1">
          <mxGeometry x="250" y="530" width="90" height="50" as="geometry" />
        </mxCell>
        <mxCell id="Bn1nHYhkl1zuAkePhq-Y-20" value="add products to cart" style="ellipse;whiteSpace=wrap;html=1;" parent="1" vertex="1">
          <mxGeometry x="250" y="590" width="90" height="50" as="geometry" />
        </mxCell>
        <mxCell id="Bn1nHYhkl1zuAkePhq-Y-23" value="Reset password" style="ellipse;whiteSpace=wrap;html=1;" parent="1" vertex="1">
          <mxGeometry x="250" y="330" width="90" height="50" as="geometry" />
        </mxCell>
        <mxCell id="Bn1nHYhkl1zuAkePhq-Y-24" value="change credentials" style="ellipse;whiteSpace=wrap;html=1;" parent="1" vertex="1">
          <mxGeometry x="250" y="390" width="90" height="50" as="geometry" />
        </mxCell>
        <mxCell id="Bn1nHYhkl1zuAkePhq-Y-25" value="B2C E-Commerce website" style="text;html=1;align=center;verticalAlign=middle;whiteSpace=wrap;rounded=0;" parent="1" vertex="1">
          <mxGeometry x="345" y="170" width="160" height="30" as="geometry" />
        </mxCell>
        <mxCell id="Bn1nHYhkl1zuAkePhq-Y-28" value="List products" style="ellipse;whiteSpace=wrap;html=1;" parent="1" vertex="1">
          <mxGeometry x="250" y="730" width="90" height="50" as="geometry" />
        </mxCell>
        <mxCell id="Bn1nHYhkl1zuAkePhq-Y-29" value="chat" style="ellipse;whiteSpace=wrap;html=1;" parent="1" vertex="1">
          <mxGeometry x="250" y="460" width="90" height="50" as="geometry" />
        </mxCell>
        <mxCell id="Bn1nHYhkl1zuAkePhq-Y-30" value="Remove products" style="ellipse;whiteSpace=wrap;html=1;" parent="1" vertex="1">
          <mxGeometry x="250" y="800" width="90" height="50" as="geometry" />
        </mxCell>
        <mxCell id="Bn1nHYhkl1zuAkePhq-Y-33" value="Get order details" style="ellipse;whiteSpace=wrap;html=1;" parent="1" vertex="1">
          <mxGeometry x="250" y="860" width="90" height="50" as="geometry" />
        </mxCell>
        <mxCell id="Bn1nHYhkl1zuAkePhq-Y-35" style="rounded=0;orthogonalLoop=1;jettySize=auto;html=1;entryX=0;entryY=0.368;entryDx=0;entryDy=0;entryPerimeter=0;" parent="1" source="Bn1nHYhkl1zuAkePhq-Y-5" target="Bn1nHYhkl1zuAkePhq-Y-15" edge="1">
          <mxGeometry relative="1" as="geometry" />
        </mxCell>
        <mxCell id="Bn1nHYhkl1zuAkePhq-Y-37" style="edgeStyle=none;rounded=0;orthogonalLoop=1;jettySize=auto;html=1;entryX=0.071;entryY=0.668;entryDx=0;entryDy=0;entryPerimeter=0;" parent="1" source="Bn1nHYhkl1zuAkePhq-Y-5" target="Bn1nHYhkl1zuAkePhq-Y-24" edge="1">
          <mxGeometry relative="1" as="geometry" />
        </mxCell>
        <mxCell id="Bn1nHYhkl1zuAkePhq-Y-45" style="edgeStyle=none;rounded=0;orthogonalLoop=1;jettySize=auto;html=1;entryX=0.107;entryY=0.7;entryDx=0;entryDy=0;entryPerimeter=0;" parent="1" source="Bn1nHYhkl1zuAkePhq-Y-9" target="Bn1nHYhkl1zuAkePhq-Y-28" edge="1">
          <mxGeometry relative="1" as="geometry" />
        </mxCell>
        <mxCell id="Bn1nHYhkl1zuAkePhq-Y-46" style="edgeStyle=none;rounded=0;orthogonalLoop=1;jettySize=auto;html=1;entryX=0.044;entryY=0.772;entryDx=0;entryDy=0;entryPerimeter=0;" parent="1" source="Bn1nHYhkl1zuAkePhq-Y-9" target="Bn1nHYhkl1zuAkePhq-Y-30" edge="1">
          <mxGeometry relative="1" as="geometry" />
        </mxCell>
        <mxCell id="Bn1nHYhkl1zuAkePhq-Y-47" style="edgeStyle=none;rounded=0;orthogonalLoop=1;jettySize=auto;html=1;entryX=0.044;entryY=0.74;entryDx=0;entryDy=0;entryPerimeter=0;" parent="1" source="Bn1nHYhkl1zuAkePhq-Y-9" target="Bn1nHYhkl1zuAkePhq-Y-33" edge="1">
          <mxGeometry relative="1" as="geometry" />
        </mxCell>
        <mxCell id="e8Y8E4H3vGcmT9SzdaQ0-4" value="Remove users" style="ellipse;whiteSpace=wrap;html=1;" vertex="1" parent="1">
          <mxGeometry x="505" y="210" width="85" height="70" as="geometry" />
        </mxCell>
        <mxCell id="e8Y8E4H3vGcmT9SzdaQ0-5" value="View sales analytics" style="ellipse;whiteSpace=wrap;html=1;" vertex="1" parent="1">
          <mxGeometry x="505" y="290" width="95" height="70" as="geometry" />
        </mxCell>
        <mxCell id="e8Y8E4H3vGcmT9SzdaQ0-7" value="Manage products review" style="ellipse;whiteSpace=wrap;html=1;" vertex="1" parent="1">
          <mxGeometry x="505" y="450" width="95" height="70" as="geometry" />
        </mxCell>
        <mxCell id="e8Y8E4H3vGcmT9SzdaQ0-9" value="" style="rounded=0;orthogonalLoop=1;jettySize=auto;html=1;entryX=1;entryY=0.5;entryDx=0;entryDy=0;" edge="1" parent="1" source="Bn1nHYhkl1zuAkePhq-Y-10" target="e8Y8E4H3vGcmT9SzdaQ0-6">
          <mxGeometry relative="1" as="geometry">
            <mxPoint x="740" y="297" as="sourcePoint" />
            <mxPoint x="340" y="485" as="targetPoint" />
          </mxGeometry>
        </mxCell>
        <mxCell id="e8Y8E4H3vGcmT9SzdaQ0-6" value="Manage user ratings" style="ellipse;whiteSpace=wrap;html=1;" vertex="1" parent="1">
          <mxGeometry x="505" y="370" width="95" height="70" as="geometry" />
        </mxCell>
      </root>
    </mxGraphModel>
  </diagram>
</mxfile>
